<svg width="580" height="492" viewBox="0 0 580 492" fill="none" xmlns="http://www.w3.org/2000/svg">
<g clip-path="url(#clip0_1404_1314)">
<path d="M-0.417969 267.428V378.886L130.402 369.263L130.495 369.247L155.553 366.509V199.554L-0.417969 267.428Z" fill="#D2D2D2"/>
<path d="M415.565 253.581V447.519L406.066 442.243V369.263C402.502 367.948 327.701 320.62 327.701 320.62V398.721L260.028 361.141L155.552 367.933V200.978L273.076 224.742L415.565 253.55V253.581Z" fill="#6167AE"/>
<path d="M640.325 572.313V871.149H292.338L260.028 361.14L327.701 398.721L406.066 442.243L415.55 447.503L640.325 572.313Z" fill="#038B69"/>
<path d="M294.369 869.71H-198.354V393.6L132.432 369.263L132.525 369.247L262.059 359.717L294.369 869.71Z" fill="#2C327A"/>
<path d="M415.566 253.581L640.326 163.087V572.314L415.566 447.504" fill="#ED4339"/>
<path d="M640.326 -131.509V163.072L415.551 253.581L479.675 -97.3942L640.326 -131.509Z" fill="#FCBC3B"/>
<path d="M479.675 -97.3945L415.551 253.581L273.077 224.757L479.675 -97.3945Z" fill="#F28784"/>
</g>
<defs>
<clipPath id="clip0_1404_1314">
<rect width="580" height="492" fill="white"/>
</clipPath>
</defs>
</svg>
