<svg width="248" height="80" viewBox="0 0 248 80" fill="none" xmlns="http://www.w3.org/2000/svg">
<path d="M170.674 36.5896C169.462 36.9671 168.842 37.7129 168.825 38.8363C168.807 39.7349 169.338 40.1932 170.409 40.2112H170.559C177.064 39.3395 180.374 38.6026 180.481 38.0005L180.941 36.2481C180.764 35.7629 180.481 35.5202 180.082 35.5112C175.489 35.8527 172.347 36.2122 170.657 36.5986" fill="#FAA21B"/>
<path d="M136.998 14.0783H137.202C147.088 13.2605 152.115 12.5506 152.274 11.9485L152.964 10.1961C152.681 9.71081 152.248 9.45918 151.655 9.4502C144.698 9.74675 139.937 10.0793 137.37 10.4567C135.529 10.8251 134.6 11.562 134.582 12.6854C134.565 13.584 135.379 14.0423 137.007 14.0693" fill="#FAA21B"/>
<path d="M37.2124 32.833C32.619 33.1655 29.4772 33.534 27.7867 33.9204C26.5742 34.2978 25.9547 35.0437 25.937 36.167C25.937 36.2928 25.937 36.4007 25.9636 36.5085C25.937 36.6433 25.9282 36.7781 25.9282 36.9309C25.9105 37.8295 26.4415 38.2879 27.5124 38.3058H27.6628C34.1678 37.4341 37.4779 36.6972 37.5841 36.0951L38.0443 34.3428C38.0089 34.2439 37.9646 34.163 37.9204 34.0911L38.0531 33.5789C37.8761 33.0936 37.5929 32.842 37.1947 32.842" fill="#FAA21B"/>
<path d="M22.2787 7.01485C15.3223 7.3114 10.5609 7.64391 7.98541 8.02134C6.14454 8.38979 5.21525 9.12669 5.19755 10.25C5.17985 11.1487 5.99408 11.607 7.62254 11.6339H7.8261C17.7119 10.8162 22.7389 10.1062 22.8982 9.50413L23.5886 7.75175C23.3054 7.26647 22.8717 7.01485 22.2787 7.00586" fill="#FAA21B"/>
<path d="M63.0766 34.0283C58.4832 34.3698 55.3413 34.7293 53.6509 35.1157C52.4384 35.4931 51.8189 36.239 51.8012 37.3623C51.7835 38.261 52.3145 38.7193 53.3854 38.7373H53.5359C60.0409 37.8656 63.3509 37.1287 63.4571 36.5266L63.9173 34.7742C63.7403 34.2889 63.4483 34.0373 63.0589 34.0373" fill="#FAA21B"/>
<path d="M92.6865 6.1521C91.3412 6.52953 90.6509 7.27542 90.6332 8.39874C90.6155 9.2974 91.2085 9.75572 92.3944 9.77369H92.5449C98.395 9.49511 101.378 9.05476 101.484 8.45266L101.997 6.70028C101.802 6.215 101.484 5.96338 101.041 5.96338L92.6776 6.16108L92.6865 6.1521Z" fill="#FAA21B"/>
<path d="M45.5188 25.8327C44.5542 25.5541 43.9789 25.1318 43.7842 24.5566C43.9612 24.0983 44.6338 23.1008 45.7932 21.5641C46.9526 20.0274 47.8907 19.4253 48.5988 19.7488C49.3068 20.0723 49.6785 20.8002 49.7228 21.9326C49.767 23.0649 49.3156 24.0624 48.3775 24.9341C47.4394 25.8058 46.4835 26.1023 45.5188 25.8327ZM106.71 5.8286C105.931 5.62191 105.321 5.75671 104.869 6.233C104.418 6.70929 104.294 7.95842 104.48 9.95344C104.666 11.9485 104.86 14.294 105.046 16.9989C105.232 19.7039 105.02 21.9505 104.4 23.7299C103.816 25.4283 102.727 26.3 101.161 26.3539C100.984 26.318 100.807 26.291 100.603 26.309C99.4351 26.1293 98.8421 25.6081 98.8156 24.7364C98.7979 23.8647 98.8687 23.1727 99.028 22.6695C99.1873 22.1662 99.621 20.971 100.338 19.1018C101.373 17.0439 101.196 15.6509 99.798 14.905C99.0723 14.6714 98.4085 14.8691 97.7978 15.4892C97.196 16.1182 96.3375 18.0234 95.2224 21.2136C94.1072 24.4039 92.5496 25.9855 90.5405 25.9496C90.2131 25.9945 89.921 26.0844 89.6643 26.2012C89.1068 26.1832 88.4253 26.1023 87.5845 25.9226L88.6466 25.0599C90.5317 23.1278 91.4875 21.2586 91.5141 19.4612V18.967C91.5495 17.5381 89.0625 16.7743 84.0621 16.6934L79.8847 16.6215C77.1854 16.5226 75.8224 17.0978 75.8047 18.3379V19.1108C75.7782 20.1802 76.5658 20.8452 78.1766 21.0968L81.3362 20.944C82.7965 20.971 83.5222 21.4023 83.5045 22.2471V22.6335C83.2036 23.0199 82.646 23.4693 81.8229 23.9815C78.6722 25.2935 75.6012 25.9136 72.592 25.8417C72.415 25.8417 72.2469 25.8417 72.0787 25.8417C71.9548 25.7698 71.8132 25.7069 71.6627 25.644C70.999 25.3744 70.5919 24.6016 70.4414 23.3345C70.4148 23.1368 70.406 22.966 70.3883 22.7863C70.8397 21.1238 71.1671 19.3534 71.353 17.4482C71.6628 14.285 71.8663 11.571 71.9725 9.28844C72.0787 7.01483 71.822 5.61292 71.2025 5.10069C70.583 4.57947 69.9723 4.60643 69.3794 5.17258C68.7864 5.73874 68.4147 7.19456 68.2642 9.53107C68.1138 11.8676 67.9545 14.0333 67.7774 16.0284C67.6004 18.0234 67.2553 20.1442 66.7331 22.3909C66.264 24.4308 65.2994 25.5182 63.8479 25.68C63.7063 25.662 63.5647 25.653 63.4054 25.662C62.2371 25.4823 61.6442 24.961 61.6176 24.0893C61.5999 23.2176 61.6707 22.5257 61.83 22.0224C61.9893 21.5192 62.423 20.3329 63.1399 18.4637C64.1754 16.4058 63.9984 15.0129 62.6 14.267C61.8743 14.0333 61.2105 14.2221 60.5998 14.8511C59.998 15.4802 59.1395 17.3853 58.0244 20.5756C56.9092 23.7658 55.3516 25.3475 53.3425 25.3115C53.2186 25.3295 53.1036 25.3564 52.9974 25.3834C52.8381 25.3115 52.6699 25.2396 52.5106 25.1408C52.3248 25.0329 52.2008 24.8262 52.13 24.5476C52.4664 23.5501 52.6611 22.4987 52.7053 21.4113C52.8027 19.3534 52.4929 17.7718 51.7849 16.6754C51.0769 15.579 50.183 15.0129 49.0944 15.0039H48.9705C47.1385 14.968 45.3949 16.1452 43.7399 18.5087C42.0849 20.8811 40.8724 22.5436 40.0936 23.4962C39.3147 24.4488 38.6067 24.961 37.9695 25.0239C37.7128 25.0509 37.465 25.1048 37.2261 25.1767C36.2525 24.961 35.7569 24.4578 35.7392 23.667C35.7215 22.7953 35.7923 22.1033 35.9516 21.6C36.1109 21.0968 36.5446 19.9106 37.2615 18.0414C38.297 15.9924 38.12 14.5905 36.7216 13.8446C35.9959 13.611 35.3321 13.7997 34.7214 14.4288C34.1196 15.0578 33.2523 16.963 32.146 20.1622C31.0308 23.3524 29.4732 24.9341 27.473 24.8981H27.4553C27.3314 24.7543 27.2517 24.5476 27.2075 24.2691C27.1101 22.1303 26.9331 20.7194 26.6942 20.0454C25.8003 17.7897 23.8355 16.6305 20.8087 16.5855C17.9412 16.5406 14.6666 17.9964 11.0025 20.953C6.38263 25.0868 4.05499 28.358 4.01074 30.7753V31.3415L4.06384 32.0155C4.52406 33.7859 5.77196 34.6845 7.78984 34.7205C10.3387 34.7654 11.622 33.9656 11.6486 32.33V32.2761L11.6043 32.1952C11.622 31.0539 10.9494 30.3709 9.57761 30.1463H9.4006L8.50671 30.2541H8.42706C8.65717 29.4453 9.44485 28.2052 10.7813 26.5427C14.6223 22.4178 17.8704 20.3689 20.5432 20.4138H20.8795L21.2601 20.4767C21.9946 20.4857 22.4726 20.9979 22.7115 22.0044C22.8974 25.4193 23.1806 27.3784 23.5611 27.8637C23.9683 28.9061 24.8621 29.4363 26.2339 29.4633L27.6854 29.4903C27.8447 29.4543 27.9952 29.4094 28.1279 29.3645C29.0218 29.2746 29.8006 29.0499 30.4467 28.6905C31.2521 28.2411 32.0398 27.4323 32.8009 26.2731C33.0576 28.4029 34.5798 29.4813 37.3854 29.5082C37.4031 29.5082 37.4208 29.5082 37.4385 29.5082C37.5447 29.5082 37.6597 29.5082 37.7748 29.4903C37.7836 29.4903 37.8013 29.4903 37.8102 29.4903C38.9165 29.3555 40.1113 28.5377 41.4034 27.019C42.1734 28.6186 43.616 29.5172 45.7224 29.7329C47.6695 29.7239 49.174 29.1308 50.2626 27.9805C50.6166 28.4298 51.0149 28.8163 51.484 29.1128C51.9176 29.4004 52.3248 29.5801 52.6965 29.679C52.9 29.7509 53.1213 29.8138 53.3691 29.8587C54.5462 29.8228 55.5286 29.5801 56.334 29.1308C57.1393 28.6815 57.927 27.8727 58.6881 26.7134C58.9448 28.8432 60.4671 29.9216 63.2726 29.9486C63.2903 29.9486 63.308 29.9486 63.3257 29.9486C63.3346 29.9486 63.3434 29.9486 63.3523 29.9486C63.3877 29.9486 63.4231 29.9396 63.4585 29.9396C63.5647 29.9396 63.6709 29.9216 63.7771 29.9036C65.733 29.7149 67.2464 28.996 68.3085 27.7289C68.9634 28.6815 69.636 29.3555 70.3263 29.697C70.4679 29.7688 70.5919 29.8138 70.7246 29.8587C70.9813 29.9935 71.2645 30.0744 71.6008 30.0834H71.6804C75.0259 30.2631 78.5837 29.697 82.3628 28.4029C84.0886 29.7958 86.6995 30.4878 90.1777 30.4788C90.2485 30.4698 90.3016 30.4518 90.3635 30.4428C90.4343 30.4608 90.4874 30.4788 90.5582 30.4878C91.7353 30.4518 92.7177 30.2182 93.5231 29.7599C94.3285 29.3105 95.1161 28.5017 95.8861 27.3425C96.1428 29.4723 97.665 30.5507 100.471 30.5776C100.568 30.5776 100.656 30.5776 100.745 30.5597C100.789 30.5597 100.833 30.5776 100.878 30.5776C103.851 30.4249 105.931 29.3645 107.108 27.3964C108.285 25.4283 108.87 22.5706 108.87 18.8232C108.87 15.0668 108.701 12.0204 108.383 9.68384C108.064 7.33835 107.515 6.06225 106.737 5.85556" fill="#FAA21B"/>
<path d="M119.066 3.66262C118.757 2.55727 118.11 1.99112 117.11 1.97314H116.88C115.668 2.27869 115.057 2.9437 115.039 3.95918C115.004 6.32265 114.792 9.71059 114.42 14.123C114.384 16.3517 113.747 21.6987 112.499 30.191C112.482 31.3143 113.145 31.9614 114.508 32.1411H114.535C115.367 32.1591 116.022 31.6468 116.5 30.6224L117.305 21.8425C118.482 11.3012 119.075 5.37007 119.093 4.04006L119.075 3.68059L119.066 3.66262Z" fill="#FAA21B"/>
<path d="M137.598 37.0931C140.448 37.138 141.89 36.3472 141.917 34.7026V34.6487L141.864 34.5678C141.881 33.4265 141.12 32.7436 139.589 32.5099H139.386L138.385 32.6178H138.297C138.554 31.809 139.43 30.5778 140.926 28.9063C145.218 24.7904 148.855 22.7505 151.838 22.7954H152.21L152.635 22.8583C153.449 22.8763 153.997 23.3795 154.263 24.386C154.475 27.8009 154.794 29.76 155.228 30.2543C155.688 31.2967 156.688 31.8359 158.228 31.8539L159.856 31.8809C159.998 31.8539 160.122 31.8179 160.255 31.782C161.405 31.7191 162.396 31.4944 163.211 31.09C164.113 30.6407 164.99 29.8319 165.848 28.6726C166.14 30.8025 167.848 31.8809 170.99 31.9168C171.061 31.9168 171.123 31.9168 171.185 31.9078C173.61 32.1055 175.84 31.7371 177.858 30.7755C179.947 29.787 181.602 28.6187 182.823 27.2887C184.044 25.9587 185.053 23.7121 185.841 20.5488C186.602 18.1494 185.974 16.7475 183.938 16.352C183.372 16.352 183.08 16.4149 183.08 16.5228C182.044 17.0889 181.318 18.5178 180.911 20.8094C180.504 23.101 179.548 24.8354 178.044 26.0126C176.699 27.064 174.654 27.6482 171.919 27.756C171.68 27.6931 171.424 27.6661 171.141 27.6841C169.831 27.5044 169.167 26.9832 169.14 26.1115C169.114 25.2398 169.194 24.5478 169.371 24.0446C169.548 23.5413 170.034 22.3551 170.822 20.4859C171.981 18.4369 171.778 17.035 170.202 16.2801C169.388 16.0375 168.645 16.2352 167.972 16.8643C167.3 17.4933 166.335 19.3985 165.096 22.5887C163.857 25.779 162.113 27.3516 159.865 27.3157C159.786 27.3247 159.715 27.3426 159.635 27.3606C159.476 27.2168 159.361 27.0011 159.308 26.6866C159.193 24.5478 158.998 23.1369 158.724 22.4629C157.715 20.2073 155.52 19.048 152.13 18.9851C148.917 18.9312 145.262 20.378 141.156 23.3346C135.987 27.4595 133.385 30.7306 133.35 33.139V33.7141L133.412 34.3881C133.934 36.1585 135.323 37.0571 137.589 37.1021" fill="#FAA21B"/>
<path d="M169.428 7.5541H169.994C171.676 7.26653 172.517 6.69139 172.534 5.84665V5.32543C171.596 3.65393 170.437 2.80919 169.047 2.78223C167.596 2.935 166.87 3.50115 166.853 4.50765C167.127 6.51166 167.985 7.52714 169.428 7.5541Z" fill="#FAA21B"/>
<path d="M219.618 24.6733C220.919 23.1456 221.964 22.5345 222.76 22.867C223.557 23.1905 223.973 23.9184 224.026 25.0508C224.07 26.1831 223.575 27.1806 222.521 28.0523C221.468 28.924 220.406 29.2205 219.326 28.9419C218.247 28.6634 217.601 28.241 217.379 27.6658C217.574 27.1985 218.326 26.21 219.627 24.6733M189.209 36.8681H189.695C190.041 36.8771 190.846 36.5985 192.103 36.0324C193.696 35.3314 195.457 34.3429 197.404 33.0668C199.67 31.7098 201.997 29.4542 204.396 26.2999H204.449C204.299 28.3488 204.617 29.8945 205.405 30.937C206.184 31.9794 207.617 32.5186 209.688 32.5456H209.795C209.795 32.5456 209.821 32.5456 209.83 32.5456C211.29 32.7792 212.91 31.9614 214.689 30.0922C215.556 31.6918 217.167 32.5995 219.521 32.8152C221.698 32.8152 223.38 32.222 224.601 31.0718C225 31.5211 225.451 31.9075 225.964 32.2131C226.796 32.6983 227.513 32.896 228.141 32.8421C228.256 32.8601 228.363 32.8781 228.478 32.896C231.805 32.7433 234.133 31.6828 235.452 29.7238C236.77 27.7647 237.417 24.907 237.408 21.1506C237.39 17.3942 237.204 14.3477 236.841 12.0022C236.478 9.65675 235.868 8.38065 234.992 8.16497C234.124 7.9493 233.434 8.08409 232.929 8.56937C232.425 9.05464 232.283 10.2948 232.496 12.2898C232.708 14.2848 232.929 16.6393 233.142 19.3353C233.354 22.0403 233.115 24.2869 232.434 26.0662C231.743 27.8546 230.451 28.7263 228.557 28.6903C228.451 28.6903 228.363 28.6903 228.265 28.6993C227.894 28.6094 227.513 28.4746 227.141 28.2769C226.938 28.1691 226.796 27.9624 226.716 27.6838C227.088 26.6863 227.301 25.6349 227.354 24.5475C227.451 22.4896 227.106 20.9079 226.318 19.8116C225.531 18.7152 224.522 18.1491 223.309 18.1311H223.167C221.114 18.0951 219.167 19.2634 217.317 21.6269C215.468 23.9903 214.114 25.6529 213.237 26.6054C212.37 27.558 211.574 28.0702 210.857 28.1332C210.37 28.1781 209.901 28.2949 209.458 28.4746C208.653 28.205 208.157 27.2525 207.989 25.6079C207.803 23.7657 208.343 21.4112 209.618 18.5355C210.892 15.6598 211.273 13.8535 210.777 13.1346C210.272 12.4066 209.6 12.137 208.741 12.3078C207.883 12.4875 206.839 13.9793 205.6 16.8101C204.36 19.6318 202.705 22.1751 200.626 24.4217C198.546 26.6683 196.767 28.3129 195.298 29.3553C193.829 30.3888 191.793 31.4492 189.182 32.5276C187.554 33.0039 186.739 33.7228 186.722 34.6844V34.8911L186.766 35.3584C187.262 36.3469 188.085 36.8591 189.226 36.8771" fill="#FAA21B"/>
<path d="M242.935 34.4778C243.864 34.4958 244.599 33.9835 245.13 32.9591L246.015 24.1702C247.307 13.6379 247.971 7.6978 247.989 6.37677L247.971 6.01731C247.626 4.90298 246.891 4.34581 245.776 4.31885H245.519C244.165 4.62439 243.475 5.28041 243.457 6.2959C243.422 8.65937 243.192 12.0473 242.776 16.4507C242.74 18.6794 242.032 24.0264 240.66 32.5097C240.643 33.6331 241.395 34.2801 242.908 34.4598H242.935V34.4778Z" fill="#FAA21B"/>
<path d="M3.78809 72.2577V45.3159H21.2675V50.0069H8.9744V56.3245H19.4444V61.0245H8.9744V67.5667H21.2675V72.2577H3.78809Z" fill="white"/>
<path d="M33.2789 56.7465C30.3672 56.7465 29.9954 59.1728 29.9954 62.39C29.9954 65.6072 30.3672 68.0695 33.2789 68.0695C36.1907 68.0695 36.5978 65.6072 36.5978 62.39C36.5978 59.1728 36.1907 56.7465 33.2789 56.7465ZM36.704 72.2663V70.415C35.3587 71.9338 33.9427 72.4999 31.8983 72.4999C29.9954 72.4999 28.2077 71.8169 27.1279 70.7206C25.1897 68.7525 25.1543 65.3466 25.1543 62.399C25.1543 59.4514 25.1897 56.0814 27.1279 54.1134C28.2077 53.017 29.96 52.334 31.8629 52.334C33.7657 52.334 35.3322 52.8643 36.5978 54.3021V45.3335H41.4478V72.2843H36.7128L36.704 72.2663Z" fill="white"/>
<path d="M58.1132 72.2576V70.4423C56.8476 71.7993 55.0598 72.4822 53.2632 72.4822C51.325 72.4822 49.7585 71.8352 48.6787 70.7388C47.1122 69.1482 46.7051 67.297 46.7051 65.1402V52.541H51.5462V64.4662C51.5462 67.1532 53.2278 68.0608 54.7501 68.0608C56.2723 68.0608 57.9893 67.1532 57.9893 64.4662V52.541H62.8393V72.2576H58.1043H58.1132Z" fill="white"/>
<path d="M76.0133 72.4911C72.1368 72.4911 67.3311 70.3702 67.3311 62.3902C67.3311 54.4101 72.1368 52.3252 76.0133 52.3252C78.6949 52.3252 80.7128 53.1609 82.4209 54.9762L79.1374 58.3103C78.1285 57.2139 77.27 56.7556 76.0044 56.7556C74.8539 56.7556 73.9511 57.169 73.2431 58.0407C72.4997 58.9842 72.1634 60.3143 72.1634 62.3902C72.1634 64.4661 72.4997 65.832 73.2431 66.7846C73.9511 67.6563 74.845 68.0697 76.0044 68.0697C77.27 68.0697 78.1285 67.6114 79.1374 66.515L82.4209 69.8041C80.704 71.6194 78.6949 72.4911 76.0133 72.4911Z" fill="white"/>
<path d="M96.0698 63.9359H92.2288C90.4764 63.9359 89.5117 64.7716 89.5117 66.1645C89.5117 67.5574 90.4056 68.4381 92.3084 68.4381C93.6537 68.4381 94.5122 68.3213 95.3618 67.4945C95.884 67.0003 96.0698 66.2095 96.0698 64.9963V63.9359ZM96.1849 72.2664V70.559C94.8839 71.88 93.6537 72.4551 91.4146 72.4551C89.1754 72.4551 87.6089 71.889 86.4584 70.7117C85.414 69.6154 84.8564 68.0247 84.8564 66.2814C84.8564 63.1361 86.9805 60.5659 91.4942 60.5659H96.0787V59.5863C96.0787 57.4296 95.0344 56.486 92.4589 56.486C90.6003 56.486 89.7418 56.9443 88.7329 58.1126L85.6353 55.0481C87.5381 52.9273 89.3967 52.3252 92.6448 52.3252C98.0877 52.3252 100.92 54.6707 100.92 59.2898V72.2754H96.1849V72.2664Z" fill="white"/>
<path d="M112.246 72.2573C108.298 72.2573 106.617 69.4175 106.617 66.6137V56.8453H104.563V53.0979H106.617V47.2656H111.467V53.0979H114.892V56.8453H111.467V66.3082C111.467 67.4405 111.989 68.0875 113.139 68.0875H114.892V72.2483H112.246V72.2573Z" fill="white"/>
<path d="M119.316 52.5406H124.166V72.2571H119.316V52.5406ZM119.245 45.1626H124.201V49.1706H119.245V45.1626Z" fill="white"/>
<path d="M139.233 57.6092C138.675 57.0431 137.932 56.7375 136.958 56.7375C135.985 56.7375 135.285 57.0431 134.719 57.6092C133.71 58.6337 133.604 60.3321 133.604 62.3811C133.604 64.43 133.719 66.1644 134.719 67.1889C135.277 67.7551 135.985 68.0606 136.958 68.0606C137.932 68.0606 138.675 67.7551 139.233 67.1889C140.242 66.1644 140.348 64.43 140.348 62.3811C140.348 60.3321 140.233 58.6337 139.233 57.6092ZM142.994 70.0646C141.799 71.3497 139.826 72.491 136.958 72.491C134.091 72.491 132.152 71.3587 130.958 70.0646C129.205 68.2134 128.754 65.9757 128.754 62.3811C128.754 58.7865 129.205 56.5937 130.958 54.7335C132.152 53.4484 134.091 52.3071 136.958 52.3071C139.826 52.3071 141.808 53.4394 142.994 54.7335C144.746 56.5847 145.189 58.8224 145.189 62.3811C145.189 65.9398 144.738 68.2134 142.994 70.0646Z" fill="white"/>
<path d="M161.11 72.2571V60.3319C161.11 57.645 159.429 56.7373 157.907 56.7373C156.384 56.7373 154.667 57.645 154.667 60.3319V72.2571H149.817V52.5406H154.552V54.3559C155.818 52.9899 157.606 52.3159 159.402 52.3159C161.341 52.3159 162.907 52.963 163.987 54.0593C165.553 55.6499 165.96 57.5012 165.96 59.658V72.2661H161.119L161.11 72.2571Z" fill="white"/>
<path d="M189.147 72.4909C186.235 72.4909 183.854 71.4305 181.987 69.5343C179.305 66.8114 179.376 63.4414 179.376 58.7864C179.376 54.1313 179.305 50.7614 181.987 48.0384C183.854 46.1512 186.235 45.0908 189.147 45.0908C194.103 45.0908 197.98 47.9665 198.909 53.6101H193.652C193.13 51.4533 191.784 49.7908 189.182 49.7908C187.766 49.7908 186.607 50.321 185.863 51.1927C184.855 52.325 184.562 53.6191 184.562 58.7954C184.562 63.9716 184.863 65.2657 185.863 66.407C186.607 67.2787 187.766 67.8089 189.182 67.8089C191.793 67.8089 193.13 66.1464 193.652 63.9896H198.909C197.98 69.6242 194.059 72.5089 189.147 72.5089" fill="white"/>
<path d="M203.051 52.5406H207.892V72.2571H203.051V52.5406ZM202.98 45.1626H207.937V49.1706H202.98V45.1626Z" fill="white"/>
<path d="M220.109 72.2573C216.162 72.2573 214.48 69.4175 214.48 66.6137V56.8453H212.427V53.0979H214.48V47.2656H219.33V53.0979H222.755V56.8453H219.33V66.3082C219.33 67.4405 219.852 68.0875 221.012 68.0875H222.764V72.2483H220.118L220.109 72.2573Z" fill="white"/>
<path d="M236.669 75.4385C236.261 76.5349 235.81 77.3706 235.217 77.9727C234.102 79.105 232.642 79.4825 231.04 79.4825H229.137V75.0521H230.252C231.633 75.0521 232.19 74.7106 232.677 73.2728L233.491 70.8464L226.854 52.5317H231.96L235.987 64.7175L239.864 52.5317H244.97L236.66 75.4295L236.669 75.4385Z" fill="white"/>
</svg>
