<svg width="224" height="72" viewBox="0 0 224 72" fill="none" xmlns="http://www.w3.org/2000/svg">
<path d="M154.158 32.9308C153.063 33.2704 152.504 33.9417 152.488 34.9527C152.472 35.7615 152.951 36.174 153.919 36.1902H154.054C159.93 35.4057 162.92 34.7425 163.016 34.2006L163.431 32.6234C163.271 32.1867 163.016 31.9683 162.656 31.9602C158.507 32.2675 155.669 32.5911 154.142 32.9388" fill="#FAA21B"/>
<path d="M123.74 12.6704H123.924C132.853 11.9344 137.394 11.2955 137.538 10.7536L138.161 9.17642C137.905 8.73968 137.514 8.51321 136.978 8.50513C130.695 8.77203 126.394 9.07128 124.076 9.41097C122.413 9.74258 121.574 10.4058 121.558 11.4168C121.542 12.2256 122.277 12.6381 123.748 12.6623" fill="#FAA21B"/>
<path d="M33.6115 29.5498C29.4627 29.8491 26.6249 30.1807 25.098 30.5284C24.0029 30.8681 23.4433 31.5394 23.4273 32.5504C23.4273 32.6637 23.4273 32.7607 23.4513 32.8578C23.4273 32.9791 23.4193 33.1004 23.4193 33.2379C23.4033 34.0467 23.883 34.4592 24.8502 34.4753H24.9861C30.8616 33.6908 33.8513 33.0276 33.9473 32.4857L34.3629 30.9086C34.331 30.8196 34.291 30.7468 34.251 30.6821L34.3709 30.2211C34.2111 29.7844 33.9553 29.5579 33.5955 29.5579" fill="#FAA21B"/>
<path d="M20.1227 6.31326C13.8396 6.58016 9.53887 6.87942 7.21266 7.21911C5.54993 7.55072 4.71058 8.21393 4.69459 9.22492C4.6786 10.0337 5.41404 10.4462 6.88491 10.4705H7.06877C15.9979 9.73446 20.5384 9.09551 20.6823 8.55362L21.3058 6.97647C21.05 6.53973 20.6583 6.31326 20.1227 6.30518" fill="#FAA21B"/>
<path d="M56.9727 30.6255C52.8238 30.9328 49.986 31.2563 48.4592 31.6041C47.364 31.9438 46.8045 32.6151 46.7885 33.6261C46.7725 34.4349 47.2521 34.8474 48.2194 34.8636H48.3553C54.2308 34.079 57.2205 33.4158 57.3164 32.8739L57.7321 31.2968C57.5722 30.86 57.3084 30.6336 56.9567 30.6336" fill="#FAA21B"/>
<path d="M83.7172 5.53679C82.5022 5.87648 81.8786 6.54778 81.8627 7.55877C81.8467 8.36756 82.3823 8.78005 83.4534 8.79622H83.5893C88.8733 8.5455 91.5672 8.14919 91.6631 7.6073L92.1268 6.03015C91.9509 5.5934 91.6631 5.36694 91.2634 5.36694L83.7092 5.54488L83.7172 5.53679Z" fill="#FAA21B"/>
<path d="M41.1142 23.2494C40.2429 22.9986 39.7233 22.6185 39.5474 22.1009C39.7073 21.6884 40.3148 20.7906 41.362 19.4076C42.4092 18.0246 43.2566 17.4827 43.8961 17.7738C44.5356 18.065 44.8713 18.7201 44.9113 19.7392C44.9513 20.7583 44.5436 21.656 43.6962 22.4406C42.8489 23.2251 41.9856 23.492 41.1142 23.2494ZM96.3838 5.24564C95.6803 5.05962 95.1287 5.18094 94.721 5.6096C94.3133 6.03826 94.2014 7.16248 94.3693 8.958C94.5372 10.7535 94.713 12.8645 94.8809 15.2989C95.0488 17.7334 94.8569 19.7554 94.2974 21.3568C93.7698 22.8854 92.7865 23.6699 91.3716 23.7185C91.2117 23.6861 91.0518 23.6618 90.868 23.678C89.8128 23.5163 89.2772 23.0472 89.2532 22.2626C89.2373 21.4781 89.3012 20.8553 89.4451 20.4024C89.589 19.9495 89.9807 18.8738 90.6282 17.1915C91.5635 15.3394 91.4036 14.0857 90.1406 13.4144C89.4851 13.2042 88.8855 13.3821 88.3339 13.9402C87.7904 14.5063 87.015 16.221 86.0077 19.0922C85.0005 21.9634 83.5936 23.3869 81.779 23.3545C81.4832 23.3949 81.2194 23.4758 80.9876 23.581C80.484 23.5648 79.8684 23.492 79.109 23.3302L80.0683 22.5538C81.771 20.8149 82.6343 19.1326 82.6583 17.515V17.0702C82.6903 15.7842 80.444 15.0967 75.9275 15.0239L72.1544 14.9592C69.7163 14.8703 68.4852 15.3879 68.4692 16.504V17.1996C68.4452 18.1621 69.1567 18.7606 70.6116 18.987L73.4654 18.8495C74.7844 18.8738 75.4398 19.262 75.4239 20.0223V20.3701C75.1521 20.7178 74.6485 21.1222 73.905 21.5832C71.0592 22.7641 68.2854 23.3221 65.5674 23.2574C65.4076 23.2574 65.2557 23.2574 65.1038 23.2574C64.9919 23.1927 64.864 23.1361 64.7281 23.0795C64.1285 22.8369 63.7608 22.1413 63.6249 21.0009C63.601 20.823 63.593 20.6693 63.577 20.5076C63.9847 19.0113 64.2804 17.418 64.4483 15.7033C64.7281 12.8564 64.9119 10.4138 65.0079 8.35949C65.1038 6.31325 64.872 5.05153 64.3124 4.59052C63.7528 4.12142 63.2013 4.14569 62.6657 4.65523C62.1301 5.16477 61.7943 6.47501 61.6584 8.57787C61.5225 10.6807 61.3787 12.6299 61.2188 14.4254C61.0589 16.221 60.7471 18.1297 60.2755 20.1517C59.8518 21.9876 58.9805 22.9663 57.6695 23.1119C57.5416 23.0957 57.4137 23.0876 57.2698 23.0957C56.2146 22.9339 55.679 22.4648 55.6551 21.6803C55.6391 20.8958 55.703 20.273 55.8469 19.8201C55.9908 19.3672 56.3825 18.2995 57.03 16.6173C57.9653 14.7651 57.8054 13.5115 56.5424 12.8402C55.8869 12.6299 55.2873 12.7998 54.7358 13.3659C54.1922 13.9321 53.4168 15.6467 52.4095 18.5179C51.4023 21.3891 49.9954 22.8126 48.1808 22.7803C48.0689 22.7964 47.965 22.8207 47.869 22.845C47.7252 22.7803 47.5733 22.7156 47.4294 22.6266C47.2615 22.5295 47.1496 22.3435 47.0856 22.0928C47.3894 21.195 47.5653 20.2487 47.6052 19.2701C47.6932 17.418 47.4134 15.9945 46.7739 15.0078C46.1344 14.021 45.327 13.5115 44.3438 13.5034H44.2318C42.5771 13.4711 41.0023 14.5306 39.5075 16.6577C38.0126 18.7929 36.9175 20.2892 36.214 21.1465C35.5105 22.0038 34.871 22.4648 34.2955 22.5214C34.0637 22.5457 33.8398 22.5942 33.624 22.6589C32.7447 22.4648 32.297 22.0119 32.281 21.3002C32.265 20.5156 32.329 19.8929 32.4729 19.4399C32.6168 18.987 33.0085 17.9194 33.656 16.2371C34.5912 14.3931 34.4314 13.1314 33.1683 12.4601C32.5128 12.2498 31.9133 12.4196 31.3617 12.9858C30.8181 13.5519 30.0347 15.2666 29.0355 18.1459C28.0283 21.0171 26.6214 22.4406 24.8148 22.4082H24.7988C24.6869 22.2788 24.6149 22.0928 24.5749 21.8421C24.487 19.9171 24.3271 18.6473 24.1113 18.0407C23.3039 16.0107 21.5293 14.9673 18.7954 14.9269C16.2054 14.8864 13.2476 16.1967 9.93819 18.8576C5.7654 22.5781 3.66302 25.5221 3.62305 27.6977V28.2073L3.67101 28.8138C4.08669 30.4072 5.21382 31.216 7.03642 31.2483C9.33865 31.2887 10.4978 30.5689 10.5217 29.0969V29.0484L10.4818 28.9756C10.4978 27.9484 9.89023 27.3338 8.65118 27.1316H8.49131L7.68393 27.2286H7.61198C7.81982 26.5007 8.53127 25.3846 9.73835 23.8883C13.2077 20.1759 16.1414 18.3319 18.5556 18.3723H18.8593L19.2031 18.429C19.8666 18.437 20.2982 18.8981 20.5141 19.8039C20.6819 22.8773 20.9377 24.6405 21.2815 25.0772C21.6492 26.0154 22.4566 26.4926 23.6956 26.5169L25.0066 26.5411C25.1505 26.5088 25.2864 26.4683 25.4063 26.4279C26.2137 26.347 26.9171 26.1448 27.5007 25.8213C28.2281 25.4169 28.9396 24.689 29.6271 23.6457C29.8589 25.5625 31.2338 26.5331 33.7679 26.5573C33.7839 26.5573 33.7999 26.5573 33.8158 26.5573C33.9118 26.5573 34.0157 26.5573 34.1196 26.5411C34.1276 26.5411 34.1436 26.5411 34.1516 26.5411C35.1508 26.4198 36.23 25.6838 37.3971 24.317C38.0926 25.7566 39.3955 26.5654 41.2981 26.7595C43.0567 26.7514 44.4157 26.2176 45.3989 25.1824C45.7187 25.5868 46.0784 25.9345 46.5021 26.2014C46.8938 26.4603 47.2615 26.622 47.5973 26.711C47.7811 26.7757 47.981 26.8323 48.2048 26.8727C49.268 26.8404 50.1553 26.622 50.8827 26.2176C51.6102 25.8132 52.3216 25.0853 53.0091 24.042C53.2409 25.9588 54.6159 26.9294 57.1499 26.9536C57.1659 26.9536 57.1819 26.9536 57.1979 26.9536C57.2059 26.9536 57.2139 26.9536 57.2219 26.9536C57.2538 26.9536 57.2858 26.9455 57.3178 26.9455C57.4137 26.9455 57.5096 26.9294 57.6056 26.9132C59.3722 26.7433 60.7392 26.0963 61.6984 24.9559C62.29 25.8132 62.8975 26.4198 63.521 26.7272C63.6489 26.7919 63.7608 26.8323 63.8807 26.8727C64.1126 26.9941 64.3684 27.0669 64.6721 27.0749H64.7441C67.7657 27.2367 70.9793 26.7272 74.3927 25.5625C75.9515 26.8161 78.3096 27.4389 81.4512 27.4308C81.5152 27.4227 81.5631 27.4065 81.6191 27.3985C81.6831 27.4146 81.731 27.4308 81.795 27.4389C82.8581 27.4065 83.7455 27.1963 84.4729 26.7838C85.2003 26.3794 85.9118 25.6515 86.6073 24.6081C86.8391 26.525 88.214 27.4955 90.7481 27.5198C90.836 27.5198 90.916 27.5198 90.9959 27.5036C91.0359 27.5036 91.0758 27.5198 91.1158 27.5198C93.8017 27.3823 95.6803 26.4279 96.7435 24.6567C97.8067 22.8854 98.3343 20.3134 98.3343 16.9408C98.3343 13.56 98.1824 10.8182 97.8946 8.71536C97.6068 6.60442 97.1112 5.45593 96.4077 5.26991" fill="#FAA21B"/>
<path d="M107.544 3.29641C107.264 2.30159 106.681 1.79205 105.777 1.77588H105.57C104.474 2.05087 103.923 2.64937 103.907 3.56331C103.875 5.69043 103.683 8.73958 103.347 12.7107C103.315 14.7166 102.74 19.5289 101.613 27.172C101.597 28.1829 102.196 28.7653 103.427 28.927H103.451C104.203 28.9432 104.794 28.4822 105.226 27.5602L105.953 19.6583C107.016 10.1711 107.552 4.83311 107.568 3.6361L107.552 3.31258L107.544 3.29641Z" fill="#FAA21B"/>
<path d="M124.282 33.3836C126.856 33.424 128.159 32.7123 128.183 31.2322V31.1837L128.135 31.1109C128.151 30.0837 127.464 29.469 126.081 29.2587H125.897L124.994 29.3558H124.914C125.146 28.6279 125.937 27.5198 127.288 26.0155C131.165 22.3112 134.451 20.4752 137.144 20.5157H137.48L137.864 20.5723C138.599 20.5885 139.095 21.0414 139.335 21.9472C139.527 25.0207 139.814 26.7838 140.206 27.2287C140.622 28.1669 141.525 28.6521 142.916 28.6683L144.387 28.6926C144.515 28.6683 144.627 28.636 144.747 28.6036C145.786 28.547 146.681 28.3448 147.417 27.9808C148.232 27.5764 149.023 26.8485 149.799 25.8052C150.063 27.722 151.605 28.6926 154.443 28.7249C154.507 28.7249 154.563 28.7249 154.619 28.7168C156.809 28.8948 158.824 28.5632 160.646 27.6978C162.533 26.8081 164.028 25.7567 165.131 24.5596C166.234 23.3626 167.145 21.3407 167.857 18.4937C168.544 16.3342 167.977 15.0725 166.138 14.7166C165.627 14.7166 165.363 14.7733 165.363 14.8703C164.428 15.3799 163.772 16.6658 163.404 18.7283C163.037 20.7907 162.173 22.3516 160.814 23.4112C159.599 24.3574 157.753 24.8832 155.283 24.9802C155.067 24.9236 154.835 24.8993 154.579 24.9155C153.396 24.7538 152.796 24.2847 152.772 23.5001C152.748 22.7156 152.82 22.0928 152.98 21.6399C153.14 21.187 153.58 20.1194 154.291 18.4371C155.339 16.593 155.155 15.3313 153.732 14.6519C152.996 14.4336 152.325 14.6115 151.717 15.1777C151.11 15.7438 150.238 17.4584 149.119 20.3297C148 23.2009 146.425 24.6163 144.395 24.5839C144.323 24.592 144.259 24.6082 144.187 24.6243C144.043 24.4949 143.939 24.3008 143.891 24.0178C143.787 22.0928 143.612 20.823 143.364 20.2164C142.452 18.1864 140.47 17.143 137.408 17.0864C134.507 17.0379 131.205 18.34 127.496 21.001C122.827 24.7133 120.477 27.6573 120.445 29.8249V30.3425L120.501 30.9491C120.973 32.5424 122.228 33.3512 124.274 33.3917" fill="#FAA21B"/>
<path d="M153.031 6.79859H153.543C155.062 6.53978 155.821 6.02215 155.837 5.26189V4.79279C154.99 3.28843 153.943 2.52817 152.688 2.50391C151.377 2.6414 150.721 3.15094 150.705 4.05679C150.953 5.86039 151.728 6.77433 153.031 6.79859Z" fill="#FAA21B"/>
<path d="M198.366 22.2061C199.541 20.8312 200.484 20.2812 201.203 20.5805C201.923 20.8716 202.299 21.5267 202.347 22.5458C202.387 23.5649 201.939 24.4627 200.988 25.2472C200.036 26.0317 199.077 26.2986 198.102 26.0479C197.127 25.7972 196.543 25.417 196.343 24.8994C196.519 24.4788 197.198 23.5892 198.374 22.2061M170.899 33.1814H171.338C171.65 33.1895 172.377 32.9388 173.513 32.4293C174.952 31.7984 176.542 30.9087 178.301 29.7603C180.347 28.539 182.45 26.5089 184.616 23.67H184.664C184.528 25.5141 184.816 26.9052 185.527 27.8434C186.231 28.7816 187.526 29.2669 189.396 29.2912H189.492C189.492 29.2912 189.516 29.2912 189.524 29.2912C190.843 29.5014 192.306 28.7654 193.913 27.0831C194.696 28.5228 196.151 29.3397 198.278 29.5338C200.244 29.5338 201.763 29 202.866 27.9647C203.226 28.3691 203.634 28.7169 204.097 28.9919C204.849 29.4286 205.496 29.6066 206.064 29.5581C206.168 29.5742 206.264 29.5904 206.367 29.6066C209.373 29.4691 211.476 28.5147 212.667 26.7515C213.858 24.9884 214.441 22.4164 214.433 19.0357C214.417 15.6549 214.249 12.9131 213.922 10.8022C213.594 8.69122 213.042 7.54273 212.251 7.34862C211.468 7.15451 210.844 7.27583 210.388 7.71258C209.933 8.14933 209.805 9.26546 209.997 11.061C210.189 12.8565 210.388 14.9755 210.58 17.4019C210.772 19.8364 210.556 21.8584 209.941 23.4598C209.317 25.0693 208.15 25.8538 206.439 25.8214C206.343 25.8214 206.264 25.8214 206.176 25.8295C205.84 25.7486 205.496 25.6273 205.16 25.4494C204.977 25.3523 204.849 25.1663 204.777 24.9156C205.112 24.0178 205.304 23.0715 205.352 22.0929C205.44 20.2408 205.128 18.8173 204.417 17.8306C203.705 16.8438 202.794 16.3343 201.699 16.3181H201.571C199.717 16.2858 197.958 17.3372 196.287 19.4643C194.616 21.5915 193.393 23.0877 192.602 23.945C191.819 24.8024 191.099 25.2634 190.452 25.32C190.012 25.3604 189.588 25.4656 189.189 25.6273C188.461 25.3847 188.014 24.5274 187.862 23.0473C187.694 21.3893 188.181 19.2702 189.332 16.6821C190.484 14.0939 190.827 12.4683 190.38 11.8212C189.924 11.1661 189.317 10.9235 188.541 11.0772C187.766 11.2389 186.822 12.5815 185.703 15.1292C184.584 17.6688 183.089 19.9577 181.211 21.9797C179.332 24.0017 177.725 25.4817 176.398 26.4199C175.071 27.3501 173.233 28.3044 170.875 29.275C169.404 29.7036 168.668 30.3507 168.652 31.2161V31.4021L168.692 31.8227C169.14 32.7123 169.883 33.1734 170.915 33.1895" fill="#FAA21B"/>
<path d="M219.426 31.03C220.265 31.0462 220.929 30.5852 221.408 29.6632L222.208 21.7532C223.375 12.2741 223.974 6.92802 223.99 5.7391L223.974 5.41558C223.663 4.41268 222.999 3.91123 221.992 3.88696H221.76C220.537 4.16195 219.913 4.75237 219.897 5.66631C219.865 7.79343 219.658 10.8426 219.282 14.8057C219.25 16.8115 218.61 21.6238 217.371 29.2588C217.355 30.2698 218.035 30.8521 219.402 31.0138H219.426V31.03Z" fill="#FAA21B"/>
<path d="M218.149 30.1403C218.989 30.1565 219.652 29.6955 220.132 28.7734L220.931 20.8635C222.098 11.3763 222.69 6.03021 222.714 4.8332L222.69 4.50968C222.378 3.50678 221.715 3.00533 220.708 2.98106H220.476C219.253 3.24797 218.629 3.84647 218.621 4.76041C218.589 6.88753 218.381 9.93668 218.006 13.9078C217.974 15.9136 217.334 20.7341 216.095 28.369C216.079 29.38 216.759 29.9624 218.125 30.1322H218.149V30.1403ZM197.094 21.3083C198.269 19.9253 199.212 19.3834 199.931 19.6745C200.651 19.9657 201.027 20.6208 201.075 21.6399C201.115 22.659 200.667 23.5567 199.716 24.3413C198.764 25.1258 197.805 25.3927 196.83 25.142C195.855 24.8912 195.271 24.5111 195.071 23.9935C195.247 23.5729 195.927 22.6832 197.102 21.3002L197.094 21.3083ZM169.619 32.2917H170.058C170.37 32.3079 171.09 32.0491 172.233 31.5395C173.672 30.9087 175.262 30.019 177.021 28.8705C179.067 27.6492 181.17 25.6111 183.336 22.7722H183.384C183.248 24.6243 183.536 26.0155 184.247 26.9456C184.951 27.8838 186.246 28.3691 188.116 28.3933H188.212C188.212 28.3933 188.236 28.3933 188.244 28.3933C189.563 28.6036 191.026 27.8676 192.633 26.1772C193.416 27.6169 194.871 28.4418 196.998 28.6279C198.964 28.6279 200.483 28.0941 201.586 27.0588C201.946 27.4632 202.354 27.811 202.817 28.086C203.561 28.5227 204.216 28.7007 204.784 28.6521C204.888 28.6683 204.976 28.6845 205.087 28.7007C208.093 28.5632 210.196 27.6088 211.387 25.8456C212.578 24.0825 213.161 21.5024 213.153 18.1217C213.137 14.7409 212.969 11.9991 212.642 9.88815C212.314 7.7772 211.754 6.62872 210.971 6.43461C210.188 6.2405 209.564 6.36182 209.108 6.79856C208.653 7.23531 208.525 8.35144 208.717 10.147C208.909 11.9425 209.1 14.0615 209.292 16.496C209.484 18.9304 209.268 20.9524 208.653 22.5538C208.029 24.1633 206.862 24.9479 205.143 24.9155C205.048 24.9155 204.968 24.9155 204.88 24.9236C204.544 24.8427 204.2 24.7214 203.864 24.5435C203.681 24.4464 203.553 24.2604 203.481 24.0016C203.816 23.1038 204.008 22.1656 204.056 21.1789C204.144 19.3268 203.832 17.9033 203.121 16.9085C202.41 15.9217 201.498 15.4122 200.403 15.396H200.275C198.421 15.3637 196.662 16.4151 194.991 18.5422C193.32 20.6774 192.097 22.1656 191.314 23.0229C190.523 23.8803 189.811 24.3413 189.164 24.3979C188.724 24.4383 188.3 24.5435 187.901 24.7052C187.173 24.4626 186.726 23.6053 186.574 22.1171C186.406 20.4591 186.893 18.34 188.045 15.7438C189.196 13.1557 189.547 11.53 189.092 10.883C188.636 10.2278 188.021 9.9852 187.245 10.1389C186.47 10.3006 185.526 11.6513 184.407 14.1909C183.288 16.7386 181.793 19.0194 179.915 21.0495C178.036 23.0795 176.429 24.5596 175.102 25.4897C173.775 26.4199 171.929 27.3742 169.579 28.3448C168.108 28.7734 167.372 29.4205 167.356 30.2859V30.4719L167.396 30.8925C167.844 31.7822 168.587 32.2432 169.619 32.2593V32.2917ZM151.744 5.89272H152.256C153.775 5.6339 154.534 5.11628 154.55 4.35601V3.88691C153.703 2.38256 152.656 1.61421 151.401 1.59803C150.09 1.73552 149.434 2.24506 149.418 3.15091C149.666 4.95452 150.441 5.86845 151.744 5.89272ZM122.982 32.4939C125.556 32.5343 126.859 31.8226 126.883 30.3425V30.294L126.835 30.2212C126.851 29.194 126.164 28.5793 124.781 28.369H124.597L123.694 28.4661H123.614C123.846 27.7382 124.637 26.6221 125.988 25.1258C129.865 21.4134 133.151 19.5856 135.845 19.626H136.18L136.564 19.6826C137.299 19.6988 137.795 20.1517 138.035 21.0576C138.227 24.1391 138.514 25.8941 138.906 26.339C139.322 27.2772 140.225 27.7625 141.616 27.7786L143.087 27.8029C143.215 27.7786 143.327 27.7463 143.439 27.7139C144.478 27.6573 145.373 27.4551 146.109 27.0831C146.924 26.6787 147.715 25.9508 148.491 24.9074C148.755 26.8243 150.297 27.7948 153.135 27.8272C153.199 27.8272 153.255 27.8272 153.311 27.8272C155.501 28.0051 157.516 27.6735 159.339 26.8081C161.225 25.9184 162.72 24.867 163.823 23.6619C164.926 22.4649 165.83 20.4348 166.549 17.5879C167.236 15.4203 166.661 14.1667 164.83 13.8108C164.311 13.8108 164.055 13.8674 164.055 13.9564C163.12 14.4659 162.464 15.76 162.096 17.8143C161.729 19.8767 160.865 21.4377 159.506 22.5053C158.291 23.4597 156.445 23.9773 153.975 24.0824C153.759 24.0258 153.527 24.0016 153.271 24.0097C152.088 23.8479 151.489 23.3788 151.465 22.5943C151.441 21.8097 151.513 21.187 151.672 20.7341C151.832 20.2811 152.272 19.2054 152.991 17.5312C154.039 15.6872 153.847 14.4255 152.432 13.7461C151.696 13.5358 151.025 13.7056 150.417 14.2718C149.81 14.838 148.939 16.5526 147.819 19.4238C146.7 22.295 145.125 23.7104 143.095 23.6781C143.023 23.6861 142.959 23.7023 142.887 23.7185C142.743 23.5891 142.639 23.395 142.591 23.1119C142.487 21.187 142.304 19.9172 142.064 19.3025C141.152 17.2643 139.17 16.221 136.108 16.1725C133.207 16.1239 129.905 17.4261 126.196 20.087C121.527 23.7994 119.177 26.7434 119.145 28.919V29.4286L119.201 30.0352C119.673 31.6285 120.936 32.4373 122.974 32.4777L122.982 32.4939ZM122.447 11.7645H122.631C131.56 11.0285 136.1 10.3896 136.244 9.84771L136.868 8.27056C136.612 7.83382 136.22 7.60736 135.685 7.59927C129.401 7.86617 125.101 8.16542 122.775 8.50511C121.112 8.83672 120.272 9.50802 120.256 10.5109C120.24 11.3197 120.976 11.7322 122.447 11.7565V11.7645ZM152.871 32.041C151.776 32.3807 151.225 33.052 151.201 34.0629C151.185 34.8717 151.664 35.2842 152.632 35.3004H152.768C158.643 34.5159 161.633 33.8527 161.737 33.3108L162.152 31.7336C161.992 31.2969 161.737 31.0704 161.377 31.0704C157.228 31.3778 154.39 31.7013 152.863 32.0491L152.871 32.041ZM106.251 2.39065C105.971 1.39583 105.388 0.886293 104.477 0.870117H104.269C103.174 1.14511 102.622 1.74361 102.606 2.65755C102.574 4.78467 102.382 7.83382 102.038 11.805C102.006 13.8108 101.431 18.6312 100.304 26.2743C100.288 27.2853 100.887 27.8676 102.118 28.0294H102.142C102.894 28.0455 103.485 27.5845 103.917 26.6625L104.644 18.7525C105.7 9.26538 106.243 3.91926 106.259 2.72225L106.243 2.39873L106.251 2.39065ZM39.8301 22.3435C38.9587 22.0928 38.4391 21.7127 38.2633 21.1951C38.4232 20.7826 39.0307 19.8767 40.0779 18.5018C41.1251 17.1188 41.9724 16.5769 42.6119 16.868C43.2515 17.1592 43.5872 17.8143 43.6272 18.8334C43.6671 19.8525 43.2595 20.7502 42.4121 21.5428C41.5647 22.3274 40.7014 22.5943 39.8301 22.3516V22.3435ZM95.0997 4.33175C94.3963 4.13764 93.8447 4.26704 93.437 4.6957C93.0293 5.13245 92.9174 6.24858 93.0853 8.0441C93.2532 9.83962 93.421 11.9587 93.5889 14.3931C93.7568 16.8276 93.5649 18.8496 93.0053 20.451C92.4777 21.9796 91.4945 22.7641 90.0796 22.8126C89.9197 22.7803 89.7598 22.7641 89.576 22.7722C88.5208 22.6104 87.9852 22.1413 87.9612 21.3568C87.9452 20.5723 88.0092 19.9495 88.1531 19.4966C88.297 19.0437 88.6886 17.968 89.3362 16.2857C90.2714 14.4336 90.1116 13.1718 88.8485 12.5005C88.193 12.2903 87.5935 12.4682 87.0419 13.0263C86.4983 13.5924 85.7229 15.3151 84.7157 18.1864C83.7085 21.0576 82.3015 22.481 80.4949 22.4487C80.1992 22.4891 79.9354 22.57 79.7035 22.6832C79.1999 22.6671 78.5764 22.5862 77.825 22.4325L78.7842 21.6561C80.4869 19.9172 81.3503 18.2349 81.3743 16.6173V16.1725C81.3982 14.8865 79.1599 14.199 74.6434 14.1262L70.8703 14.0615C68.4322 13.9725 67.2011 14.4902 67.1851 15.6063V16.3019C67.1611 17.2643 67.8806 17.8628 69.3355 18.0893L72.1893 17.9518C73.5083 17.9761 74.1638 18.3643 74.1478 19.1246V19.4723C73.876 19.8282 73.3724 20.2245 72.6289 20.6855C69.7831 21.8664 67.0013 22.4244 64.2913 22.3678C64.1315 22.3678 63.9796 22.3678 63.8277 22.3678C63.7078 22.3031 63.5879 22.2465 63.452 22.1899C62.8524 21.9472 62.4847 21.2517 62.3488 20.1113C62.3248 19.9333 62.3168 19.7797 62.3009 19.6179C62.7085 18.1217 63.0043 16.5283 63.1722 14.8137C63.452 11.9667 63.6358 9.5161 63.7318 7.46986C63.8277 5.42362 63.5959 4.1619 63.0363 3.6928C62.4767 3.2237 61.9252 3.24797 61.3896 3.7575C60.854 4.26704 60.5182 5.57729 60.3823 7.68015C60.2464 9.78301 60.1025 11.7322 59.9427 13.5358C59.7828 15.3394 59.463 17.2482 58.9994 19.262C58.5757 21.098 57.7044 22.0766 56.3934 22.2303C56.2655 22.2141 56.1376 22.2061 55.9937 22.2141C54.9385 22.0524 54.4029 21.5833 54.3789 20.7988C54.3629 20.0142 54.4269 19.3915 54.5708 18.9385C54.7147 18.4856 55.1064 17.4099 55.7539 15.7276C56.6892 13.8755 56.5213 12.6138 55.2662 11.9425C54.6108 11.7322 54.0112 11.9101 53.4596 12.4682C52.9161 13.0344 52.1406 14.7571 51.1334 17.6283C50.1262 20.4995 48.7193 21.923 46.9047 21.8906C46.7927 21.9068 46.6888 21.9311 46.5929 21.9553C46.449 21.8906 46.2971 21.8259 46.1532 21.737C45.9854 21.6399 45.8734 21.4539 45.8095 21.2032C46.1133 20.3054 46.2891 19.3591 46.3291 18.3724C46.417 16.5202 46.1372 15.0968 45.4977 14.11C44.8582 13.1233 44.0508 12.6138 43.0676 12.5976H42.9557C41.301 12.5653 39.7262 13.6248 38.2313 15.76C36.7364 17.8952 35.6413 19.3915 34.9378 20.2488C34.2344 21.1061 33.5949 21.5671 33.0193 21.6237C32.7875 21.648 32.5636 21.6965 32.3478 21.7612C31.4685 21.5671 31.0208 21.1142 31.0048 20.4024C30.9889 19.6179 31.0528 18.9951 31.1967 18.5422C31.3406 18.0893 31.7323 17.0217 32.3798 15.3313C33.3151 13.4792 33.1552 12.2175 31.8922 11.5462C31.2367 11.3359 30.6371 11.5057 30.0855 12.0719C29.542 12.638 28.7666 14.3608 27.7593 17.232C26.7521 20.1032 25.3452 21.5267 23.5306 21.4943H23.5146C23.4107 21.3649 23.3307 21.1789 23.2907 20.9282C23.2028 19.0032 23.0429 17.7334 22.8271 17.1188C22.0197 15.0887 20.2451 14.0453 17.5112 13.9968C14.9212 13.9564 11.9634 15.2666 8.65396 17.9275C4.44119 21.6803 2.3388 24.6243 2.29883 26.8V27.3095L2.34679 27.9161C2.76247 29.5094 3.88961 30.3182 5.71221 30.3506C8.01445 30.391 9.17356 29.6712 9.19754 28.1911V28.1426L9.15757 28.0698C9.17356 27.0426 8.56603 26.4279 7.31898 26.2177H7.1591L6.35172 26.3147H6.27978C6.48762 25.5868 7.19907 24.4707 8.40615 22.9744C11.8755 19.254 14.8092 17.418 17.2234 17.4584H17.5192L17.8629 17.5151C18.5264 17.5231 18.9581 17.9842 19.1739 18.89C19.3418 21.9715 19.5896 23.7266 19.9413 24.1714C20.309 25.1096 21.1164 25.5868 22.3555 25.6111L23.6665 25.6353C23.8103 25.603 23.9462 25.5625 24.0662 25.514C24.8735 25.4331 25.577 25.2309 26.1605 24.9074C26.888 24.503 27.5994 23.7751 28.2949 22.7318C28.5267 24.6486 29.9017 25.6192 32.4357 25.6434C32.4517 25.6434 32.4677 25.6434 32.4837 25.6434C32.5796 25.6434 32.6836 25.6434 32.7875 25.6272C32.7955 25.6272 32.8115 25.6272 32.8194 25.6272C33.8187 25.5059 34.8979 24.7699 36.065 23.4031C36.7604 24.8427 38.0634 25.6596 39.966 25.8456C41.7246 25.8375 43.0836 25.3037 44.0668 24.2685C44.3866 24.6729 44.7463 25.0207 45.17 25.2876C45.5617 25.5464 45.9294 25.7081 46.2651 25.7971C46.449 25.8618 46.6489 25.9184 46.8727 25.9588C47.9359 25.9265 48.8232 25.7162 49.5586 25.3037C50.2861 24.8993 50.9975 24.1714 51.685 23.1281C51.9168 25.0449 53.2918 26.0155 55.8258 26.0397C55.8418 26.0397 55.8578 26.0397 55.8738 26.0397C55.8818 26.0397 55.8898 26.0397 55.8978 26.0397C55.9297 26.0397 55.9617 26.0316 55.9937 26.0316C56.0896 26.0316 56.1855 26.0155 56.2735 25.9993C58.0401 25.8294 59.4071 25.1824 60.3663 24.042C60.9579 24.8993 61.5654 25.5059 62.1889 25.8133C62.3169 25.878 62.4368 25.9184 62.5487 25.9588C62.7805 26.0802 63.0363 26.153 63.3401 26.161H63.412C66.4337 26.3228 69.6472 25.8133 73.0606 24.6486C74.6194 25.9022 76.9776 26.525 80.1192 26.5169C80.1832 26.5088 80.2311 26.4927 80.2871 26.4846C80.343 26.5007 80.399 26.5169 80.4629 26.525C81.5261 26.4927 82.4135 26.2743 83.1489 25.8699C83.8763 25.4655 84.5878 24.7376 85.2753 23.6942C85.5071 25.6111 86.89 26.5816 89.4161 26.6059C89.504 26.6059 89.584 26.6059 89.6639 26.5897C89.7039 26.5897 89.7438 26.6059 89.7838 26.6059C92.4697 26.4603 94.3483 25.5059 95.4115 23.7428C96.4747 21.9715 97.0023 19.3995 97.0023 16.0188C97.0023 12.638 96.8504 9.89624 96.5626 7.78529C96.2748 5.67434 95.7792 4.52586 95.0758 4.33175H95.0997ZM82.4214 4.62291C81.2064 4.96261 80.5829 5.6339 80.5669 6.64489C80.5509 7.45369 81.0865 7.86617 82.1577 7.88234H82.2935C87.5775 7.63162 90.2714 7.23531 90.3674 6.69342L90.831 5.11628C90.6551 4.67953 90.3674 4.45307 89.9677 4.45307L82.4135 4.631L82.4214 4.62291ZM55.6819 29.7359C51.5331 30.0433 48.6953 30.3668 47.1685 30.7145C46.0733 31.0542 45.5137 31.7255 45.4977 32.7365C45.4817 33.5453 45.9614 33.9578 46.9286 33.974H47.0645C52.94 33.1895 55.9297 32.5262 56.0257 31.9844L56.4413 30.4072C56.2815 29.9705 56.0257 29.744 55.6739 29.744L55.6819 29.7359ZM18.8302 5.40744C12.547 5.67434 8.24627 5.9736 5.92005 6.31329C4.25733 6.64489 3.41797 7.3081 3.40198 8.31909C3.386 9.12788 4.12143 9.54037 5.59231 9.56463H5.77616C14.7053 8.82863 19.2458 8.18969 19.3897 7.6478L20.0133 6.07065C19.7575 5.6339 19.3658 5.40744 18.8302 5.39935V5.40744ZM32.3078 28.6602C28.159 28.9676 25.3212 29.2911 23.7944 29.6389C22.6992 29.9785 22.1396 30.6498 22.1236 31.6608C22.1236 31.7741 22.1236 31.8711 22.1476 31.9682C22.1236 32.0895 22.1156 32.2108 22.1156 32.3483C22.0997 33.1571 22.5793 33.5696 23.5466 33.5858H23.6824C29.5579 32.8012 32.5477 32.138 32.6436 31.5961L33.0593 30.019C33.0273 29.93 32.9873 29.8572 32.9474 29.7925L33.0673 29.3315C32.9074 28.8948 32.6516 28.6683 32.2919 28.6683L32.3078 28.6602Z" stroke="#EE2C38" stroke-width="1.22118" stroke-miterlimit="10"/>
<path d="M3.42188 65.0318V40.7842H19.2098V45.0061H8.10628V50.6919H17.563V54.9219H8.10628V60.8099H19.2098V65.0318H3.42188Z" fill="#021049"/>
<path d="M30.0581 51.072C27.4281 51.072 27.0924 53.2557 27.0924 56.1512C27.0924 59.0466 27.4281 61.2627 30.0581 61.2627C32.6881 61.2627 33.0558 59.0466 33.0558 56.1512C33.0558 53.2557 32.6881 51.072 30.0581 51.072ZM33.1517 65.0398V63.3737C31.9366 64.7405 30.6576 65.2501 28.811 65.2501C27.0924 65.2501 25.4776 64.6354 24.5024 63.6487C22.7517 61.8774 22.7197 58.8121 22.7197 56.1593C22.7197 53.5064 22.7517 50.4734 24.5024 48.7022C25.4776 47.7155 27.0604 47.1008 28.7791 47.1008C30.4978 47.1008 31.9127 47.578 33.0558 48.872V40.8003H37.4364V65.056H33.1597L33.1517 65.0398Z" fill="#021049"/>
<path d="M52.4896 65.0315V63.3978C51.3465 64.619 49.7318 65.2337 48.109 65.2337C46.3583 65.2337 44.9434 64.6514 43.9682 63.6647C42.5533 62.2331 42.1855 60.567 42.1855 58.6259V47.2866H46.5582V58.0193C46.5582 60.4376 48.077 61.2545 49.452 61.2545C50.8269 61.2545 52.3777 60.4376 52.3777 58.0193V47.2866H56.7584V65.0315H52.4817H52.4896Z" fill="#021049"/>
<path d="M68.6574 65.2421C65.1561 65.2421 60.8154 63.3333 60.8154 56.1512C60.8154 48.9692 65.1561 47.0928 68.6574 47.0928C71.0796 47.0928 72.9022 47.845 74.445 49.4787L71.4793 52.4793C70.568 51.4926 69.7926 51.0801 68.6494 51.0801C67.6102 51.0801 66.7949 51.4522 66.1553 52.2367C65.4839 53.0859 65.1801 54.2829 65.1801 56.1512C65.1801 58.0196 65.4839 59.2489 66.1553 60.1062C66.7949 60.8908 67.6022 61.2628 68.6494 61.2628C69.7926 61.2628 70.568 60.8503 71.4793 59.8636L74.445 62.8238C72.8942 64.4575 71.0796 65.2421 68.6574 65.2421Z" fill="#021049"/>
<path d="M86.7728 57.5424H83.3034C81.7206 57.5424 80.8493 58.2945 80.8493 59.5482C80.8493 60.8018 81.6567 61.5944 83.3754 61.5944C84.5904 61.5944 85.3658 61.4893 86.1333 60.7452C86.6049 60.3003 86.7728 59.5886 86.7728 58.4967V57.5424ZM86.8767 65.0399V63.5032C85.7016 64.6921 84.5904 65.2097 82.568 65.2097C80.5455 65.2097 79.1306 64.7002 78.0914 63.6407C77.1481 62.6539 76.6445 61.2224 76.6445 59.6533C76.6445 56.8225 78.5631 54.5094 82.6399 54.5094H86.7808V53.6278C86.7808 51.6867 85.8375 50.8375 83.5113 50.8375C81.8326 50.8375 81.0571 51.25 80.1458 52.3014L77.348 49.5434C79.0667 47.6347 80.7454 47.0928 83.6791 47.0928C88.5954 47.0928 91.1534 49.2037 91.1534 53.3609V65.048H86.8767V65.0399Z" fill="#021049"/>
<path d="M101.383 65.0316C97.8178 65.0316 96.2989 62.4758 96.2989 59.9524V51.1608H94.4443V47.7881H96.2989V42.5391H100.68V47.7881H103.773V51.1608H100.68V59.6774C100.68 60.6964 101.151 61.2788 102.19 61.2788H103.773V65.0235H101.383V65.0316Z" fill="#021049"/>
<path d="M107.769 47.2867H112.15V65.0316H107.769V47.2867ZM107.705 40.6465H112.182V44.2537H107.705V40.6465Z" fill="#021049"/>
<path d="M125.76 51.8483C125.256 51.3388 124.585 51.0638 123.705 51.0638C122.826 51.0638 122.194 51.3388 121.683 51.8483C120.771 52.7703 120.676 54.2989 120.676 56.143C120.676 57.987 120.779 59.548 121.683 60.47C122.186 60.9796 122.826 61.2545 123.705 61.2545C124.585 61.2545 125.256 60.9796 125.76 60.47C126.671 59.548 126.767 57.987 126.767 56.143C126.767 54.2989 126.663 52.7703 125.76 51.8483ZM129.157 63.0582C128.078 64.2147 126.295 65.2419 123.705 65.2419C121.115 65.2419 119.365 64.2228 118.285 63.0582C116.703 61.392 116.295 59.3781 116.295 56.143C116.295 52.9078 116.703 50.9344 118.285 49.2602C119.365 48.1036 121.115 47.0764 123.705 47.0764C126.295 47.0764 128.086 48.0955 129.157 49.2602C130.74 50.9263 131.14 52.9402 131.14 56.143C131.14 59.3458 130.732 61.392 129.157 63.0582Z" fill="#021049"/>
<path d="M145.52 65.0316V54.2989C145.52 51.8806 144.001 51.0637 142.626 51.0637C141.251 51.0637 139.7 51.8806 139.7 54.2989V65.0316H135.319V47.2867H139.596V48.9204C140.739 47.6911 142.354 47.0845 143.977 47.0845C145.727 47.0845 147.142 47.6668 148.118 48.6535C149.532 50.0851 149.9 51.7512 149.9 53.6923V65.0397H145.527L145.52 65.0316Z" fill="#021049"/>
<path d="M170.843 65.2419C168.213 65.2419 166.063 64.2875 164.376 62.5809C161.954 60.1303 162.018 57.0973 162.018 52.9078C162.018 48.7182 161.954 45.6853 164.376 43.2346C166.063 41.5362 168.213 40.5818 170.843 40.5818C175.32 40.5818 178.821 43.1699 179.66 48.2491H174.912C174.44 46.308 173.225 44.8118 170.875 44.8118C169.596 44.8118 168.549 45.289 167.877 46.0735C166.966 47.0926 166.702 48.2572 166.702 52.9159C166.702 57.5745 166.974 58.7392 167.877 59.7663C168.549 60.5509 169.596 61.028 170.875 61.028C173.233 61.028 174.44 59.5318 174.912 57.5907H179.66C178.821 62.6618 175.28 65.258 170.843 65.258" fill="#021049"/>
<path d="M183.402 47.2867H187.774V65.0316H183.402V47.2867ZM183.338 40.6465H187.814V44.2537H183.338V40.6465Z" fill="#021049"/>
<path d="M198.809 65.0316C195.244 65.0316 193.725 62.4758 193.725 59.9524V51.1608H191.87V47.7881H193.725V42.5391H198.105V47.7881H201.199V51.1608H198.105V59.6774C198.105 60.6964 198.577 61.2788 199.624 61.2788H201.207V65.0235H198.817L198.809 65.0316Z" fill="#021049"/>
<path d="M213.766 67.8947C213.398 68.8814 212.99 69.6336 212.455 70.1755C211.447 71.1945 210.128 71.5342 208.681 71.5342H206.963V67.5469H207.97C209.217 67.5469 209.721 67.2395 210.16 65.9455L210.896 63.7617L204.9 47.2786H209.513L213.15 58.2458L216.651 47.2786H221.264L213.758 67.8866L213.766 67.8947Z" fill="#021049"/>
</svg>
